<?xml version="1.0" encoding="UTF-8" standalone="no"?>
<!DOCTYPE svg PUBLIC "-//W3C//DTD SVG 1.1//EN" "http://www.w3.org/Graphics/SVG/1.1/DTD/svg11.dtd">
<svg width="100%" height="100%" viewBox="0 0 218 120" version="1.1" xmlns="http://www.w3.org/2000/svg" xmlns:xlink="http://www.w3.org/1999/xlink" xml:space="preserve" xmlns:serif="http://www.serif.com/" style="fill-rule:evenodd;clip-rule:evenodd;stroke-linejoin:round;stroke-miterlimit:1.41421;">
    <g transform="matrix(1,0,0,1,-0.00438762,-0.013055)">
        <g transform="matrix(1,0,0,1,-334.538,-256.297)">
            <g transform="matrix(11.3547,0,0,11.3547,-3548.32,-2987.16)">
                <path d="M349.27,291.59L349.27,288.062C349.27,287.838 349.212,287.652 349.096,287.504C348.98,287.356 348.782,287.282 348.502,287.282C348.246,287.282 348.03,287.346 347.854,287.474C347.678,287.602 347.546,287.726 347.458,287.846L347.458,291.59L345.61,291.59L345.61,288.062C345.61,287.838 345.552,287.652 345.436,287.504C345.32,287.356 345.122,287.282 344.842,287.282C344.594,287.282 344.384,287.346 344.212,287.474C344.04,287.602 343.906,287.726 343.81,287.846L343.81,291.59L341.962,291.59L341.962,285.794L343.81,285.794L343.81,286.502C343.874,286.422 343.966,286.332 344.086,286.232C344.206,286.132 344.35,286.038 344.518,285.95C344.686,285.862 344.87,285.79 345.07,285.734C345.27,285.678 345.486,285.65 345.718,285.65C346.134,285.65 346.482,285.736 346.762,285.908C347.042,286.08 347.242,286.338 347.362,286.682C347.442,286.554 347.55,286.428 347.686,286.304C347.822,286.18 347.976,286.07 348.148,285.974C348.32,285.878 348.508,285.8 348.712,285.74C348.916,285.68 349.134,285.65 349.366,285.65C349.902,285.65 350.326,285.79 350.638,286.07C350.95,286.35 351.106,286.79 351.106,287.39L351.106,291.59L349.27,291.59Z" style="fill:white;fill-rule:nonzero;"/>
                <path d="M359.242,291.59L359.242,288.062C359.242,287.838 359.184,287.652 359.068,287.504C358.952,287.356 358.754,287.282 358.474,287.282C358.218,287.282 358.002,287.346 357.826,287.474C357.65,287.602 357.518,287.726 357.43,287.846L357.43,291.59L355.582,291.59L355.582,288.062C355.582,287.838 355.524,287.652 355.408,287.504C355.292,287.356 355.094,287.282 354.814,287.282C354.566,287.282 354.356,287.346 354.184,287.474C354.012,287.602 353.878,287.726 353.782,287.846L353.782,291.59L351.934,291.59L351.934,285.794L353.782,285.794L353.782,286.502C353.846,286.422 353.938,286.332 354.058,286.232C354.178,286.132 354.322,286.038 354.49,285.95C354.658,285.862 354.842,285.79 355.042,285.734C355.242,285.678 355.458,285.65 355.69,285.65C356.106,285.65 356.454,285.736 356.734,285.908C357.014,286.08 357.214,286.338 357.334,286.682C357.414,286.554 357.522,286.428 357.658,286.304C357.794,286.18 357.948,286.07 358.12,285.974C358.292,285.878 358.48,285.8 358.684,285.74C358.888,285.68 359.106,285.65 359.338,285.65C359.874,285.65 360.298,285.79 360.61,286.07C360.922,286.35 361.078,286.79 361.078,287.39L361.078,291.59L359.242,291.59Z" style="fill:white;fill-rule:nonzero;"/>
            </g>
        </g>
        <g transform="matrix(1,0,0,1,-334.538,-256.297)">
            <g transform="matrix(6.48529,0,0,6.48529,-1880.69,-1515.73)">
                <path d="M344.746,291.734C344.298,291.734 343.882,291.664 343.498,291.524C343.114,291.384 342.78,291.182 342.496,290.918C342.212,290.654 341.988,290.334 341.824,289.958C341.66,289.582 341.578,289.158 341.578,288.686C341.578,288.27 341.654,287.876 341.806,287.504C341.958,287.132 342.17,286.81 342.442,286.538C342.714,286.266 343.038,286.05 343.414,285.89C343.79,285.73 344.206,285.65 344.662,285.65C345.094,285.65 345.49,285.726 345.85,285.878C346.21,286.03 346.522,286.246 346.786,286.526C347.05,286.806 347.256,287.146 347.404,287.546C347.552,287.946 347.626,288.39 347.626,288.878L347.626,289.274L343.498,289.274C343.554,289.546 343.704,289.786 343.948,289.994C344.192,290.202 344.526,290.306 344.95,290.306C345.054,290.306 345.172,290.296 345.304,290.276C345.436,290.256 345.568,290.224 345.7,290.18C345.832,290.136 345.96,290.084 346.084,290.024C346.208,289.964 346.31,289.894 346.39,289.814L347.17,290.966C346.882,291.222 346.518,291.414 346.078,291.542C345.638,291.67 345.194,291.734 344.746,291.734ZM345.862,288.074C345.846,287.97 345.816,287.86 345.772,287.744C345.728,287.628 345.658,287.52 345.562,287.42C345.466,287.32 345.346,287.238 345.202,287.174C345.058,287.11 344.878,287.078 344.662,287.078C344.462,287.078 344.29,287.11 344.146,287.174C344.002,287.238 343.884,287.32 343.792,287.42C343.7,287.52 343.628,287.628 343.576,287.744C343.524,287.86 343.49,287.97 343.474,288.074L345.862,288.074Z" style="fill:white;fill-rule:nonzero;"/>
                <path d="M350.026,291.59L347.746,285.794L349.69,285.794L350.998,289.466L352.318,285.794L354.274,285.794L351.994,291.59L350.026,291.59Z" style="fill:white;fill-rule:nonzero;"/>
                <path d="M357.61,291.734C357.162,291.734 356.746,291.664 356.362,291.524C355.978,291.384 355.644,291.182 355.36,290.918C355.076,290.654 354.852,290.334 354.688,289.958C354.524,289.582 354.442,289.158 354.442,288.686C354.442,288.27 354.518,287.876 354.67,287.504C354.822,287.132 355.034,286.81 355.306,286.538C355.578,286.266 355.902,286.05 356.278,285.89C356.654,285.73 357.07,285.65 357.526,285.65C357.958,285.65 358.354,285.726 358.714,285.878C359.074,286.03 359.386,286.246 359.65,286.526C359.914,286.806 360.12,287.146 360.268,287.546C360.416,287.946 360.49,288.39 360.49,288.878L360.49,289.274L356.362,289.274C356.418,289.546 356.568,289.786 356.812,289.994C357.056,290.202 357.39,290.306 357.814,290.306C357.918,290.306 358.036,290.296 358.168,290.276C358.3,290.256 358.432,290.224 358.564,290.18C358.696,290.136 358.824,290.084 358.948,290.024C359.072,289.964 359.174,289.894 359.254,289.814L360.034,290.966C359.746,291.222 359.382,291.414 358.942,291.542C358.502,291.67 358.058,291.734 357.61,291.734ZM358.726,288.074C358.71,287.97 358.68,287.86 358.636,287.744C358.592,287.628 358.522,287.52 358.426,287.42C358.33,287.32 358.21,287.238 358.066,287.174C357.922,287.11 357.742,287.078 357.526,287.078C357.326,287.078 357.154,287.11 357.01,287.174C356.866,287.238 356.748,287.32 356.656,287.42C356.564,287.52 356.492,287.628 356.44,287.744C356.388,287.86 356.354,287.97 356.338,288.074L358.726,288.074Z" style="fill:white;fill-rule:nonzero;"/>
                <path d="M365.326,291.59L365.326,288.242C365.326,287.882 365.24,287.632 365.068,287.492C364.896,287.352 364.666,287.282 364.378,287.282C364.098,287.282 363.868,287.342 363.688,287.462C363.508,287.582 363.362,287.71 363.25,287.846L363.25,291.59L361.402,291.59L361.402,285.794L363.25,285.794L363.25,286.502C363.426,286.294 363.682,286.1 364.018,285.92C364.354,285.74 364.766,285.65 365.254,285.65C365.91,285.65 366.394,285.822 366.706,286.166C367.018,286.51 367.174,286.95 367.174,287.486L367.174,291.59L365.326,291.59Z" style="fill:white;fill-rule:nonzero;"/>
                <path d="M370.714,291.734C370.122,291.734 369.672,291.59 369.364,291.302C369.056,291.014 368.902,290.59 368.902,290.03L368.902,287.402L367.942,287.402L367.942,285.794L368.902,285.794L368.902,284.21L370.738,284.21L370.738,285.794L371.914,285.794L371.914,287.402L370.738,287.402L370.738,289.514C370.738,289.682 370.784,289.822 370.876,289.934C370.968,290.046 371.094,290.102 371.254,290.102C371.358,290.102 371.454,290.088 371.542,290.06C371.63,290.032 371.69,289.998 371.722,289.958L372.082,291.35C371.97,291.462 371.8,291.554 371.572,291.626C371.344,291.698 371.058,291.734 370.714,291.734Z" style="fill:white;fill-rule:nonzero;"/>
            </g>
        </g>
        <g transform="matrix(1,0,0,1,-334.538,-256.297)">
            <g transform="matrix(1.12853,0,0,1.12853,-25.6312,14.0409)">
                <circle cx="504.907" cy="314.379" r="6.576" style="fill:rgb(72,183,230);"/>
            </g>
        </g>
    </g>
</svg>
